<svg xmlns="http://www.w3.org/2000/svg" viewBox="184.16 101.00 390.56 86.72" width="391" height="87" role="img" aria-label="bkd local">
<title>bkd local</title>
<path d="M219.84 130.44Q225.76 130.44 230.48 133.24Q235.2 136.04 237.92 141.12Q240.64 146.2 240.64 152.92Q240.64 159.56 237.92 164.76Q235.2 169.96 230.44 172.84Q225.68 175.72 219.84 175.72Q214.16 175.72 209.88 173.24Q205.6 170.76 203.44 166.92V175.0H196.16V115.8H203.44V139.32Q205.68 135.4 210.0 132.92000000000002Q214.32 130.44 219.84 130.44ZM218.32 136.76Q214.32 136.76 210.92000000000002 138.72Q207.52 140.68 205.48000000000002 144.4Q203.44 148.12 203.44 153.0Q203.44 157.96 205.48000000000002 161.68Q207.52 165.4 210.92000000000002 167.36Q214.32 169.32 218.32 169.32Q222.4 169.32 225.8 167.36Q229.2 165.4 231.2 161.68Q233.2 157.96 233.2 152.92Q233.2 147.96 231.2 144.28Q229.2 140.6 225.8 138.68Q222.4 136.76 218.32 136.76Z" fill="#C2557E"/>
<path d="M277.71999999999997 175.0 260.52 155.64V175.0H253.23999999999998V115.8H260.52V150.6L277.4 131.16H287.56L266.91999999999996 153.0L287.64 175.0Z" fill="#C2557E"/>
<path d="M315.59999999999997 130.44Q320.71999999999997 130.44 325.12 132.8Q329.52 135.16 331.84 139.0V115.8H339.2V175.0H331.84V166.76Q329.67999999999995 170.68 325.43999999999994 173.2Q321.2 175.72 315.52 175.72Q309.67999999999995 175.72 304.91999999999996 172.84Q300.15999999999997 169.96 297.43999999999994 164.76Q294.71999999999997 159.56 294.71999999999997 152.92Q294.71999999999997 146.2 297.43999999999994 141.12Q300.15999999999997 136.04 304.91999999999996 133.24Q309.67999999999995 130.44 315.59999999999997 130.44ZM316.96 136.76Q312.88 136.76 309.52 138.68Q306.15999999999997 140.6 304.15999999999997 144.28Q302.15999999999997 147.96 302.15999999999997 152.92Q302.15999999999997 157.96 304.15999999999997 161.68Q306.15999999999997 165.4 309.52 167.36Q312.88 169.32 316.96 169.32Q321.03999999999996 169.32 324.43999999999994 167.36Q327.84 165.4 329.84 161.68Q331.84 157.96 331.84 153.0Q331.84 148.04 329.84 144.36Q327.84 140.68 324.43999999999994 138.72Q321.03999999999996 136.76 316.96 136.76Z" fill="#C2557E"/>
<path d="M361.79999999999995 115.8V175.0H354.52V115.8Z" fill="#2C1A24"/>
<path d="M374.47999999999996 153.0Q374.47999999999996 146.28 377.4 141.12Q380.31999999999994 135.96 385.35999999999996 133.2Q390.4 130.44 396.64 130.44Q402.87999999999994 130.44 407.91999999999996 133.2Q412.96 135.96 415.88 141.07999999999998Q418.79999999999995 146.2 418.79999999999995 153.0Q418.79999999999995 159.8 415.79999999999995 164.96Q412.79999999999995 170.12 407.67999999999995 172.92000000000002Q402.55999999999995 175.72 396.31999999999994 175.72Q390.15999999999997 175.72 385.15999999999997 172.92000000000002Q380.15999999999997 170.12 377.31999999999994 164.96Q374.47999999999996 159.8 374.47999999999996 153.0ZM411.35999999999996 153.0Q411.35999999999996 147.72 409.28 144.04000000000002Q407.2 140.36 403.84 138.56Q400.47999999999996 136.76 396.55999999999995 136.76Q392.55999999999995 136.76 389.23999999999995 138.56Q385.91999999999996 140.36 383.91999999999996 144.04000000000002Q381.91999999999996 147.72 381.91999999999996 153.0Q381.91999999999996 158.36 383.88 162.04000000000002Q385.84 165.72 389.12 167.51999999999998Q392.4 169.32 396.31999999999994 169.32Q400.23999999999995 169.32 403.67999999999995 167.48Q407.11999999999995 165.64 409.23999999999995 161.95999999999998Q411.35999999999996 158.28 411.35999999999996 153.0Z" fill="#2C1A24"/>
<path d="M450.03999999999996 130.44Q458.11999999999995 130.44 463.35999999999996 134.36Q468.59999999999997 138.28 470.28 145.24H462.43999999999994Q461.31999999999994 141.24 458.0799999999999 138.92000000000002Q454.84 136.6 450.03999999999996 136.6Q443.79999999999995 136.6 439.9599999999999 140.88Q436.11999999999995 145.16 436.11999999999995 153.0Q436.11999999999995 160.92 439.9599999999999 165.24Q443.79999999999995 169.56 450.03999999999996 169.56Q454.84 169.56 458.03999999999996 167.32Q461.23999999999995 165.08 462.43999999999994 160.92H470.28Q468.52 167.64 463.23999999999995 171.68Q457.9599999999999 175.72 450.03999999999996 175.72Q443.79999999999995 175.72 438.9599999999999 172.92000000000002Q434.11999999999995 170.12 431.4 165.0Q428.67999999999995 159.88 428.67999999999995 153.0Q428.67999999999995 146.2 431.4 141.12Q434.11999999999995 136.04 438.9599999999999 133.24Q443.79999999999995 130.44 450.03999999999996 130.44Z" fill="#2C1A24"/>
<path d="M501.03999999999996 130.44Q506.79999999999995 130.44 511.03999999999996 132.92000000000002Q515.28 135.4 517.3599999999999 139.16V131.16H524.7199999999999V175.0H517.3599999999999V166.84Q515.1999999999999 170.68 510.91999999999996 173.2Q506.63999999999993 175.72 500.96 175.72Q495.11999999999995 175.72 490.4 172.84Q485.67999999999995 169.96 482.9599999999999 164.76Q480.23999999999995 159.56 480.23999999999995 152.92Q480.23999999999995 146.2 482.9599999999999 141.12Q485.67999999999995 136.04 490.43999999999994 133.24Q495.19999999999993 130.44 501.03999999999996 130.44ZM502.47999999999996 136.76Q498.4 136.76 495.03999999999996 138.68Q491.67999999999995 140.6 489.67999999999995 144.28Q487.67999999999995 147.96 487.67999999999995 152.92Q487.67999999999995 157.96 489.67999999999995 161.68Q491.67999999999995 165.4 495.03999999999996 167.36Q498.4 169.32 502.47999999999996 169.32Q506.55999999999995 169.32 509.9599999999999 167.36Q513.3599999999999 165.4 515.3599999999999 161.68Q517.3599999999999 157.96 517.3599999999999 153.0Q517.3599999999999 148.04 515.3599999999999 144.36Q513.3599999999999 140.68 509.9599999999999 138.72Q506.55999999999995 136.76 502.47999999999996 136.76Z" fill="#2C1A24"/>
<path d="M 548.7199999999999 113 C 541.0199999999999 113 534.7199999999999 119.3 534.7199999999999 127 C 534.7199999999999 137 544.7199999999999 148 548.7199999999999 175 C 552.7199999999999 148 562.7199999999999 137 562.7199999999999 127 C 562.7199999999999 119.3 556.42 113 548.7199999999999 113 Z M 543.3199999999999 126.5 A 5.4 5.4 0 1 0 554.1199999999999 126.5 A 5.4 5.4 0 1 0 543.3199999999999 126.5 Z" fill="#C2557E" fill-rule="evenodd"/>
</svg>